<?xml version="1.0" standalone="no"?>
<!DOCTYPE svg PUBLIC "-//W3C//DTD SVG 20010904//EN"
 "http://www.w3.org/TR/2001/REC-SVG-20010904/DTD/svg10.dtd">
<svg version="1.0" xmlns="http://www.w3.org/2000/svg"
 width="700.000000pt" height="700.000000pt" viewBox="0 0 700.000000 700.000000"
 preserveAspectRatio="xMidYMid meet">
<metadata>
Created by potrace 1.14, written by Peter Selinger 2001-2017
</metadata>
<g transform="translate(0.000000,700.000000) scale(0.100000,-0.100000)"
fill="#000000" stroke="none">
<path d="M3250 6500 c-115 -42 -144 -55 -220 -104 -167 -108 -285 -258 -383
-487 -20 -47 -37 -92 -37 -100 0 -21 -87 68 -141 145 -51 72 -87 153 -97 221
-3 22 -5 91 -4 153 1 130 6 131 -80 -3 -80 -123 -155 -312 -173 -433 -3 -21
-8 -49 -11 -62 -2 -14 -6 -72 -8 -130 l-4 -105 -93 -7 c-108 -7 -193 -16 -229
-23 -112 -22 -142 -31 -193 -56 -123 -61 -230 -170 -301 -307 l-17 -33 48 25
c134 67 282 86 397 49 l60 -18 -70 -28 c-262 -102 -450 -314 -518 -582 -18
-71 -35 -195 -27 -195 3 1 38 32 76 71 136 137 341 246 496 264 30 4 64 8 77
10 12 2 22 0 22 -3 0 -4 -15 -37 -34 -72 -58 -109 -89 -257 -88 -415 1 -44 -6
-91 -18 -125 -40 -117 -75 -257 -86 -340 -2 -19 -8 -60 -13 -90 -13 -83 -11
-363 4 -470 72 -517 327 -960 736 -1280 202 -159 518 -305 764 -355 44 -9 84
-20 89 -25 9 -9 12 -407 3 -416 -6 -7 -43 -13 -110 -19 -32 -3 -106 -15 -164
-25 l-106 -20 -46 26 c-25 15 -71 40 -101 57 -30 17 -72 41 -92 54 -21 13 -42
23 -47 23 -5 0 -12 -17 -16 -37 -4 -21 -16 -77 -27 -125 l-20 -87 -66 -21
c-122 -39 -295 -112 -435 -181 -142 -71 -379 -210 -384 -226 -5 -13 182 -126
342 -208 400 -204 810 -325 1250 -369 131 -13 636 -15 690 -3 11 3 49 8 85 12
358 39 793 171 1144 347 122 61 366 207 366 218 0 18 -240 159 -410 241 -135
66 -386 168 -452 184 -26 7 -35 27 -53 120 -14 80 -33 130 -46 127 -8 -2 -73
-37 -144 -78 -127 -72 -139 -76 -193 -60 -9 3 -42 8 -72 11 -30 4 -57 8 -60
10 -3 1 -36 6 -73 10 -77 7 -108 12 -114 19 -8 8 -4 409 5 418 4 4 28 11 53
14 60 9 246 65 344 104 617 246 1077 823 1181 1480 3 19 8 46 11 60 10 46 12
414 2 475 -5 33 -12 75 -14 93 -16 106 -63 277 -105 382 -17 42 -23 80 -26
160 -5 189 -14 394 -20 443 -5 41 -3 47 14 47 53 0 220 -70 309 -131 39 -26
150 -115 173 -139 3 -3 20 -18 37 -34 l32 -28 -24 88 c-121 454 -309 691 -660
835 -31 13 -176 57 -215 65 -19 4 -38 9 -42 10 -5 1 -14 2 -20 3 -14 2 24 20
57 27 163 34 286 30 460 -16 66 -17 144 -40 173 -50 81 -30 84 -35 -46 78
-237 208 -466 339 -673 387 -41 9 -83 19 -94 22 -11 3 -103 7 -205 9 -152 3
-202 0 -280 -16 -110 -21 -211 -52 -289 -86 -30 -13 -56 -23 -58 -21 -1 2 10
30 27 63 71 143 190 229 413 299 49 15 87 28 85 30 -8 7 -170 16 -348 20 -225
4 -331 -6 -460 -44 -146 -43 -279 -114 -372 -199 -30 -28 -31 -28 -46 48 -11
56 -7 146 8 213 14 59 75 188 103 218 10 11 17 22 16 23 -2 2 -38 -9 -79 -24z"/>
</g>
</svg>
