<?xml version="1.0" standalone="no"?>
<!DOCTYPE svg PUBLIC "-//W3C//DTD SVG 20010904//EN"
 "http://www.w3.org/TR/2001/REC-SVG-20010904/DTD/svg10.dtd">
<svg version="1.0" xmlns="http://www.w3.org/2000/svg"
 width="700.000000pt" height="700.000000pt" viewBox="0 0 700.000000 700.000000"
 preserveAspectRatio="xMidYMid meet">
<metadata>
Created by potrace 1.14, written by Peter Selinger 2001-2017
</metadata>
<g transform="translate(0.000000,700.000000) scale(0.100000,-0.100000)"
fill="#000000" stroke="none">
<path d="M1750 5428 l0 -178 -178 0 -178 0 1 -347 0 -348 155 -2 c85 -1 165
-2 178 -2 l22 -1 -2 -347 -3 -348 -175 0 -175 0 0 -175 0 -175 -172 -3 -173
-2 1 -153 c0 -83 0 -163 0 -178 l-1 -25 -175 1 -175 1 -1 -30 c-1 -39 -1 -241
0 -282 l1 -32 175 2 175 1 1 -40 c0 -22 0 -102 -1 -177 0 -76 3 -138 7 -138 5
-1 82 -2 173 -3 l164 -2 1 -345 0 -345 -173 -3 -172 -2 3 -178 2 -177 167 -1
c110 0 168 3 171 10 1 6 3 86 2 179 l-1 167 178 0 178 0 0 175 0 175 178 -2
177 -3 0 -170 0 -170 172 -3 172 -2 -1 -178 0 -177 -162 0 c-88 1 -166 0 -171
-2 -8 -3 -13 -298 -6 -334 0 -4 77 -7 170 -7 l170 0 -1 163 c0 90 2 167 5 172
3 4 82 8 176 7 94 0 171 2 172 5 0 3 1 84 2 179 l1 172 348 0 348 0 0 -178 0
-178 -177 0 -178 1 -1 -160 c0 -88 2 -166 4 -172 3 -10 48 -12 178 -11 l174 1
2 171 3 171 173 -1 c114 0 172 3 173 10 1 6 2 85 3 176 l1 165 172 3 173 2 2
178 3 177 173 0 172 -1 1 31 c0 16 0 173 0 348 0 174 3 317 7 318 9 1 652 1
675 0 15 -1 17 -16 17 -176 l0 -175 43 -1 c23 0 180 0 348 -1 l306 0 1 -164
c0 -90 1 -167 1 -171 1 -13 341 -9 349 4 5 9 8 243 3 317 -1 11 -32 14 -171
13 -94 0 -173 3 -176 6 -4 3 -7 320 -8 704 l-1 698 -167 0 c-107 0 -168 3
-169 10 -1 5 -2 82 -3 170 l-1 160 -525 1 -525 0 -2 300 c-1 164 -2 322 -3
349 l0 50 -175 -1 c-170 0 -175 0 -176 20 0 12 -1 172 -2 356 l-2 335 -525 0
-525 0 0 -175 0 -175 -170 0 -170 0 -2 165 c-1 91 -2 170 -2 175 -1 7 -173 11
-526 11 l-525 -1 0 -177z"/>
</g>
</svg>
